<?xml version="1.0" encoding="UTF-8"?>
<svg version="1.1" xmlns="http://www.w3.org/2000/svg" width="600" height="600">
<path d="M0 0 C198 0 396 0 600 0 C600 198 600 396 600 600 C402 600 204 600 0 600 C0 402 0 204 0 0 Z " fill="#324e71" transform="translate(0,0)"/>
<path d="M0 0 C3.22523986 -0.00434506 6.44907546 -0.040704 9.67407227 -0.07861328 C62.1998468 -0.36307781 118.79017453 19.81075664 157.35961914 56.05810547 C159.56790458 58.12990416 161.82689992 60.10175725 164.13696289 62.05810547 C174.06137122 70.83660273 174.06137122 70.83660273 174.94946289 76.49560547 C174.49297608 83.36631723 168.03148318 88.24341056 163.39770508 92.80126953 C161.17803669 95.01542664 159.09490486 97.34069668 157.01196289 99.68310547 C155.93108398 100.88773438 155.93108398 100.88773438 154.82836914 102.11669922 C153.02196205 104.14846704 151.23222887 106.19310658 149.44946289 108.24560547 C148.24387724 109.62301524 147.03515435 110.99768135 145.82446289 112.37060547 C145.18541016 113.09546143 145.18541016 113.09546143 144.53344727 113.83496094 C143.09609803 115.45769443 141.64884762 117.07111864 140.19946289 118.68310547 C139.74394043 119.19921387 139.28841797 119.71532227 138.8190918 120.24707031 C135.13003007 124.32149648 132.01561241 127.03986592 126.51196289 127.87060547 C120.02080018 126.99044781 115.81299946 123.53375114 111.38696289 118.87060547 C100.67063702 107.7767965 87.50230373 99.32247556 73.82446289 92.37060547 C72.74938477 91.81888672 71.67430664 91.26716797 70.56665039 90.69873047 C34.5900456 73.20634618 -8.20740773 70.03510667 -46.23413086 82.68310547 C-85.38888766 96.3965555 -117.30448531 124.50816326 -136.17553711 161.37060547 C-136.49361328 161.98758301 -136.81168945 162.60456055 -137.1394043 163.24023438 C-149.08238431 186.7206073 -154.40224157 211.93851165 -154.42553711 238.18310547 C-154.42621185 238.86901764 -154.4268866 239.55492981 -154.42758179 240.2616272 C-154.4095413 251.85525099 -153.62458778 263.01828452 -151.17553711 274.37060547 C-150.91015137 275.61608154 -150.91015137 275.61608154 -150.6394043 276.88671875 C-143.80848791 308.07415825 -129.54783168 335.46721786 -107.17553711 358.37060547 C-105.99604492 359.64291016 -105.99604492 359.64291016 -104.79272461 360.94091797 C-86.5279287 380.17019155 -61.98085122 392.08939021 -36.73803711 399.24560547 C-35.72990967 399.53226074 -35.72990967 399.53226074 -34.70141602 399.82470703 C-23.24162708 402.87437798 -11.91441773 403.69781602 -0.12011719 403.63134766 C2.12405719 403.62066689 4.36742259 403.63128794 6.61157227 403.64404297 C20.72409807 403.66056139 34.25933468 402.33597801 47.82446289 398.18310547 C48.85063721 397.8741333 49.87681152 397.56516113 50.93408203 397.24682617 C70.46347012 391.21080402 88.48787795 382.02211977 103.82446289 368.37060547 C104.59274414 367.72220703 105.36102539 367.07380859 106.15258789 366.40576172 C112.68629319 360.76990003 118.48829534 354.51015058 124.29199219 348.13427734 C124.94981689 347.41949219 125.6076416 346.70470703 126.28540039 345.96826172 C126.87111816 345.32381104 127.45683594 344.67936035 128.06030273 344.01538086 C130.72330239 341.5325925 132.99274507 340.50292421 136.57446289 339.93310547 C144.21333493 340.96141517 149.99104611 347.07363868 155.32446289 352.24560547 C156.64654253 353.50429773 157.96944877 354.76212239 159.29321289 356.01904297 C160.22133789 356.90414551 160.22133789 356.90414551 161.16821289 357.80712891 C163.01130649 359.54698318 164.89834996 361.22327204 166.82446289 362.87060547 C170.84733183 366.34044143 174.74165963 369.94656602 178.63696289 373.55810547 C179.29631836 374.16525391 179.95567383 374.77240234 180.63500977 375.39794922 C188.53975461 382.75725852 188.53975461 382.75725852 189.38696289 387.55810547 C188.05608342 396.57851079 180.40554989 403.24592664 174.13696289 409.37060547 C173.33967773 410.15806152 172.54239258 410.94551758 171.72094727 411.75683594 C166.00979664 417.34408285 160.15539356 422.49352044 153.82446289 427.37060547 C152.76098633 428.26972656 152.76098633 428.26972656 151.67602539 429.18701172 C105.75030801 467.7807286 44.9123456 485.98764742 -14.63769531 480.85498047 C-18.49955745 480.45935699 -22.33668551 479.94651146 -26.17553711 479.37060547 C-27.03566406 479.24169922 -27.89579102 479.11279297 -28.78198242 478.97998047 C-55.79046484 474.78146863 -81.09743901 466.3006139 -105.17553711 453.37060547 C-105.78091309 453.04592285 -106.38628906 452.72124023 -107.01000977 452.38671875 C-126.31014665 441.9270546 -143.37645688 428.51624506 -159.17553711 413.37060547 C-160.12299805 412.47599609 -161.07045898 411.58138672 -162.04663086 410.65966797 C-168.62748194 404.29351132 -174.31097733 397.49490461 -179.80053711 390.19433594 C-181.16159782 388.38909383 -182.54239781 386.60036761 -183.92553711 384.81201172 C-222.6093154 334.17217839 -237.54532303 267.71865323 -229.98803711 204.93310547 C-229.46221261 201.06347929 -228.84815185 197.21726714 -228.17553711 193.37060547 C-228.01456543 192.43361816 -227.85359375 191.49663086 -227.68774414 190.53125 C-223.9019519 169.34754221 -217.6104487 148.01501571 -207.1418457 129.13720703 C-206.16149416 127.3449322 -205.23595461 125.53250953 -204.32006836 123.70654297 C-197.19660652 109.64664026 -188.39072412 96.37392577 -178.17553711 84.37060547 C-177.29866498 83.30987853 -176.42240692 82.24864379 -175.54663086 81.18701172 C-164.56570419 67.99534803 -152.73153416 55.90731257 -138.92163086 45.67675781 C-137.17180289 44.36781211 -135.45414768 43.02413714 -133.73803711 41.67138672 C-116.69085788 28.43191539 -97.43299181 19.53126114 -77.17553711 12.37060547 C-76.34957031 12.07428223 -75.52360352 11.77795898 -74.67260742 11.47265625 C-62.08679088 7.01656915 -49.35800815 4.38023004 -36.17553711 2.37060547 C-34.6159729 2.10352783 -34.6159729 2.10352783 -33.02490234 1.83105469 C-22.0292756 0.11152337 -11.10981061 -0.00166626 0 0 Z " fill="#FDFEFE" transform="translate(298.175537109375,67.62939453125)"/>
<path d="M0 0 C5.52821985 2.27199718 8.31555055 7.08633418 11.625 11.8125 C12.19734375 12.60720703 12.7696875 13.40191406 13.359375 14.22070312 C21.42780293 25.5634117 21.42780293 25.5634117 21.4375 32.875 C21.46650391 34.32519531 21.46650391 34.32519531 21.49609375 35.8046875 C20.27878303 43.64531876 15.65912214 48.91700856 10.1394043 54.29882812 C9.11663895 55.3200602 9.11663895 55.3200602 8.07321167 56.36192322 C5.83276661 58.59452965 3.57860984 60.81273436 1.32421875 63.03125 C-0.24608067 64.59153487 -1.81541697 66.1527896 -3.38383484 67.71496582 C-7.50712295 71.81736929 -11.64183402 75.90805674 -15.77954102 79.99591064 C-22.39364903 86.53463377 -28.98921795 93.09206932 -35.5866909 99.64756775 C-37.88283313 101.9261307 -40.18320855 104.20034465 -42.48445129 106.47375488 C-43.90676496 107.88283615 -45.32902424 109.29197231 -46.7512207 110.70117188 C-47.38367203 111.32374374 -48.01612335 111.94631561 -48.66773987 112.5877533 C-51.659576 115.55766506 -54.53187887 118.57221347 -57.27822876 121.77128601 C-61.86562354 127.07896511 -66.84152531 131.99763639 -71.79711914 136.95825195 C-72.87233534 138.03810658 -73.94735735 139.1181546 -75.02220154 140.19837952 C-77.92041762 143.10961125 -80.82187063 146.01759458 -83.72436833 148.92455697 C-85.54020152 150.7433347 -87.35545194 152.56269214 -89.17053032 154.38222313 C-94.85785511 160.08318583 -100.54715118 165.78217017 -106.23936087 171.47825557 C-112.7967967 178.04018217 -119.34762079 184.60861686 -125.89283663 191.18273193 C-130.96543671 196.2769473 -136.04378579 201.36538447 -141.12653631 206.44947213 C-144.15733274 209.48131543 -147.18566135 212.51552861 -150.20802498 215.55578041 C-153.04719531 218.41143173 -155.89344279 221.25983422 -158.74524879 224.10286522 C-159.78868944 225.14553588 -160.82958111 226.19076476 -161.8676796 227.23875427 C-163.28799219 228.67180072 -164.71855026 230.0946708 -166.14955139 231.51704407 C-166.94610673 232.31506597 -167.74266207 233.11308786 -168.56335545 233.93529224 C-173.34081272 237.98350398 -177.59709804 239.4578636 -183.8125 239.5625 C-184.95332031 239.60503906 -186.09414063 239.64757812 -187.26953125 239.69140625 C-195.96932298 238.07898412 -202.16995085 231.26724127 -208.125 225.125 C-208.78886719 224.45597656 -209.45273437 223.78695312 -210.13671875 223.09765625 C-215.13156142 218.02461644 -215.13156142 218.02461644 -217.29986572 215.46636963 C-222.90569262 208.86789699 -229.05666779 202.82937625 -235.1934967 196.7313385 C-237.25671313 194.68102427 -239.31666812 192.62748134 -241.37585449 190.57312012 C-245.74775359 186.21258257 -250.12357646 181.85599599 -254.5 177.5 C-259.57617701 172.44751674 -264.65068129 167.39337658 -269.72096252 162.3349762 C-271.73895718 160.32340813 -273.75996659 158.31490405 -275.78112793 156.30651855 C-281.24133437 150.86781587 -286.65089121 145.45399474 -291.64425659 139.57614136 C-293.56836519 137.33923788 -295.64988123 135.28885451 -297.76953125 133.23828125 C-298.59517578 132.42939453 -299.42082031 131.62050781 -300.27148438 130.78710938 C-301.98138039 129.12189934 -303.6949972 127.46050233 -305.41210938 125.80273438 C-306.23130859 124.99771484 -307.05050781 124.19269531 -307.89453125 123.36328125 C-308.63550049 122.64438721 -309.37646973 121.92549316 -310.13989258 121.18481445 C-313.552956 117.17595443 -314.22160522 113.45785014 -314.4609375 108.2578125 C-312.35353952 97.93513428 -301.26309434 88.32905753 -293.46875 81.91796875 C-288.79253494 78.97839153 -284.33549309 78.41910948 -278.87109375 78.3359375 C-271.84729153 79.96049039 -266.44064137 85.11879784 -261.51147461 90.13208008 C-260.91682907 90.72468124 -260.32218353 91.31728241 -259.70951843 91.92784119 C-257.76646893 93.86790892 -255.83431714 95.81843858 -253.90234375 97.76953125 C-252.54107785 99.13386039 -251.17921545 100.49759461 -249.81678772 101.86076355 C-246.97050428 104.71163433 -244.12917988 107.56732157 -241.29174805 110.42700195 C-237.67193837 114.07506519 -234.04353683 117.71442455 -230.41181087 121.35062122 C-226.92633129 124.84128148 -223.44553578 128.33659833 -219.96484375 131.83203125 C-219.30909803 132.48965769 -218.65335232 133.14728413 -217.97773552 133.82483864 C-205.40154829 146.44763851 -205.40154829 146.44763851 -200.32830811 152.44367981 C-198.10901813 155.04392427 -195.72113611 157.44918389 -193.3125 159.875 C-192.40113281 160.80054688 -191.48976563 161.72609375 -190.55078125 162.6796875 C-187.1155173 165.80456773 -185.17917096 166.89280264 -180.5625 167.3125 C-175.20093491 166.84218727 -172.99802345 165.14772696 -169.5 161.125 C-168.95859375 160.41730469 -168.95859375 160.41730469 -168.40625 159.6953125 C-166.42387577 157.30545023 -164.20264922 155.1888149 -162 153 C-161.00505305 152.00502039 -160.01057642 151.00957032 -159.01650715 150.01371384 C-158.20921019 149.20549183 -158.20921019 149.20549183 -157.3856042 148.38094211 C-156.81010851 147.80476429 -156.23461281 147.22858648 -155.64167786 146.63494873 C-154.34578778 145.33759235 -153.04989426 144.04023941 -151.7539978 142.7428894 C-151.06622128 142.05433743 -150.37844475 141.36578545 -149.66982651 140.65636826 C-133.86163632 124.83052425 -118.05061634 109.00751001 -102.23795033 93.18613815 C-93.09648752 84.03950728 -83.95597247 74.89193292 -74.81762695 65.7421875 C-66.83956162 57.75417482 -58.85975733 49.76790419 -50.8778345 41.783746 C-46.6534052 37.5580106 -42.42986735 33.33139261 -38.20841408 29.10268402 C-34.24368101 25.13119041 -30.27663711 21.16202022 -26.30776787 17.19466019 C-24.84836081 15.73497691 -23.38981733 14.27442967 -21.93218231 12.81297684 C-19.94953273 10.82538695 -17.96386272 8.84086566 -15.97737122 6.8571167 C-15.39518336 6.272016 -14.8129955 5.6869153 -14.21316558 5.08408427 C-9.66479089 0.55278437 -6.51447965 -0.9859753 0 0 Z " fill="#FDFEFE" transform="translate(508,185)"/>
<path d="M0 0 C0.33 0.66 0.66 1.32 1 2 C-1.31 4.64 -3.62 7.28 -6 10 C-6.33 9.01 -6.66 8.02 -7 7 C-4.69 4.69 -2.38 2.38 0 0 Z " fill="#324e71" transform="translate(466,155)"/>
</svg>
